# xmcd CD database file
#
# Track frame offsets:
#	225
#	16665
#	35241
#	53957
#	72229
#	89153
#	105239
#	121280
#	135975
#	152432
#	165903
#	185333
#	199140
#	217168
#	231795
#
# Disc length: 3287 seconds
#
# Revision: 0
# Processed by: cddbd v1.4PL0 Copyright (c) Steve Scherf et al.
# Submitted via: CDex 1.50beta10
#
DISCID=c70cd40f
DTITLE=Jindra Malik - Je to o tom
DYEAR=1998
DGENRE=Country
TTITLE0=Kde jsou ty casy
TTITLE1=Ruze je vlidna
TTITLE2=Pocasi
TTITLE3=Chci byt za vodou
TTITLE4=S dobrou naladou
TTITLE5=Honem jdi spat
TTITLE6=Budu mit o cem vypravet
TTITLE7=Strahov 90
TTITLE8=Klaudie
TTITLE9=Je to o tom
TTITLE10=Mas volno
TTITLE11=Jen pouhej vlasek
TTITLE12=Nemam nic proti Vam
TTITLE13=Brana od zivota
TTITLE14=Poseptej mi
EXTD=YEAR: 1998
EXTT0=
EXTT1=
EXTT2=
EXTT3=
EXTT4=
EXTT5=
EXTT6=
EXTT7=
EXTT8=
EXTT9=
EXTT10=
EXTT11=
EXTT12=
EXTT13=
EXTT14=
PLAYORDER=
